<?xml version="1.0" encoding="utf-8" ?><svg xmlns="http://www.w3.org/2000/svg" xmlns:xlink="http://www.w3.org/1999/xlink" width="416" height="416" viewBox="0 0 416 416"><path fill="#025290" d="M277.801 25.7867C281.906 25.2931 282.672 26.9113 284.539 30.2108C288.544 37.2853 292.22 44.5247 296.183 51.6269L305.241 67.7658C306.737 70.4303 310.842 77.1894 311.389 79.8503C313.856 91.8562 314.649 104.863 316.506 116.944C318.127 110.219 319.906 100.803 320.512 94.0529C320.781 91.0512 319.711 83.5581 319.333 80.2787C318.483 72.9001 317.442 65.3352 316.631 57.9415C315.979 51.9919 315.723 45.7512 319.771 40.8946C322.627 37.4679 326.14 35.8058 330.598 35.5054C332.547 35.374 337.04 35.1209 338.635 36.7255C339.035 37.1274 339.82 40.6214 339.919 41.3253C341.35 51.4339 342.893 61.5001 344.31 71.6142C345.27 78.4749 346.858 86.2365 347.34 93.0823C347.532 95.8189 346.853 101.576 346.773 104.517C346.541 112.991 345.676 121.47 344.84 129.909C346.353 127.455 347.4 124.577 348.522 121.924C351.427 115.058 354.938 107.671 355.259 100.118C355.625 91.5194 354.308 81.2584 356.741 72.9915C357.792 69.4164 360.083 65.8716 363.425 64.0652C366.985 62.1416 373.024 60.9386 376.942 62.2652C377.849 62.5721 378.836 63.1311 379.21 64.0599C380.407 67.0288 380.267 108.601 379.482 114.26C378.898 118.476 377.039 122.852 375.719 126.907L370.344 143.966C368.9 148.486 367.134 153.319 366.161 157.941C364.815 164.333 363.945 171.022 362.949 177.489C361.611 186.082 360.227 194.667 358.795 203.245C356.962 214.692 357.547 227.15 344.713 231.812C344.357 245.851 345.219 260.466 344.354 274.441C342.54 300.807 332.46 325.93 315.545 346.237C295.571 370.162 265.338 387.677 234.062 390.462C229.788 390.487 225.023 390.917 220.548 390.989C219.866 386.439 220.315 374.234 220.27 369.201C220.127 352.98 220.612 336.503 220.431 320.289C221.282 320.276 222.133 320.254 222.983 320.223C237.136 319.509 250.43 313.219 259.956 302.728C276.763 284.325 275.988 264.181 274.947 240.455L318.702 240.441C324.236 240.452 330.375 240.306 335.852 240.511C335.385 238.262 335.553 234.346 335.78 232.043C322.709 231.804 309.69 232.083 296.531 231.95C290.001 231.885 280.81 232.305 274.316 231.223C271.147 230.009 266.849 227.443 264.19 225.445C251.828 216.151 239.177 206.392 227.639 196.146C223.23 192.231 219.263 183.704 215.481 178.963C211.182 173.574 206.494 168.567 203.193 162.552C205.187 157.061 210.024 153.148 215.785 152.253C227.246 150.472 235.248 158.276 241.43 166.848C242.624 168.503 244.6 171.198 246.197 172.579C251.17 175.372 258.979 175.342 264.291 174.471C268.394 164.658 273.892 154.78 277.747 145.097C276.57 137.014 272.565 125.696 270.559 117.483C269.785 114.313 267.444 104.519 266.429 102.143C261.639 99.0087 253.932 95.2502 248.676 92.7409C242.997 93.6356 232.587 93.5615 227.116 91.8007C222.782 90.4058 218.715 87.4109 216.74 83.2292C214.923 79.3808 214.362 73.7349 215.731 69.6677C216.224 69.5552 216.72 69.4613 217.22 69.3861C227.986 67.6707 242.529 67.3731 253.478 67.7243C257.029 67.8382 276.157 75.1191 279.19 77.3264C277.317 71.4156 272.733 62.2009 269.666 56.5603C262.993 44.2876 260.86 30.3427 277.801 25.7867ZM229.262 328.542L229.303 343.099C229.308 345.002 229.443 348.969 229.199 350.672C234.746 349.866 241.17 348.856 246.377 346.726C281.697 335.747 303.39 302.509 305.481 266.515C299.176 266.669 290.025 266.745 283.769 266.482C283.799 294.04 262.783 320.172 236.525 327.114C234.428 327.668 231.351 328.511 229.262 328.542ZM296.313 223.077C298.783 223.105 302.139 223.048 304.533 223.225C305.065 210.579 306.549 197.261 307.333 184.582L309.189 156.086C309.543 151.077 309.628 146.936 310.343 141.841C306.891 141.336 300.922 139.54 297.254 138.645C294.045 137.862 287.585 136.835 284.787 135.914C285.701 139.332 287.21 143.591 286.798 147.133C286.268 151.683 274.155 173.639 274.448 174.492C274.584 174.887 278.835 177.482 279.456 177.93C280.828 178.936 282.141 180.021 283.389 181.178C288.252 185.655 291.822 190.654 294.12 196.89C295.994 201.935 296.705 207.338 296.201 212.697C296.026 214.484 295.719 216.234 295.269 217.974C294.862 219.546 293.398 221.425 294.365 222.934C295.045 223.169 295.592 223.094 296.313 223.077ZM229.208 382.062L229.436 382.01C231.84 381.487 235.403 381.155 237.928 380.777C245.055 379.712 250.89 378.602 257.423 375.475C267.832 369.192 274.909 364.284 283.04 354.899C293.15 343.231 299.009 330.319 303.566 315.696C304.527 312.613 306.749 306.085 306.52 302.934C305.729 303.946 305.408 304.885 304.811 305.99C302.074 311.066 299.145 316.264 295.797 320.968C281.151 341.362 258.968 355.064 234.175 359.031C232.333 359.316 230.898 359.542 229.018 359.529C229.216 361.439 229.212 363.476 229.187 365.4C229.116 370.931 229.341 376.539 229.208 382.062ZM313.476 223.204C315.933 222.988 319.905 223.094 322.37 223.267C322.408 221.527 322.567 220.425 322.823 218.69C326.902 195.701 330.673 172.658 334.136 149.568C331.536 148.642 321.313 144.784 319.09 144.293C319.188 148.886 318.034 158.707 317.701 163.822L315.171 200.247C314.602 207.863 313.851 215.585 313.476 223.204ZM331.473 138.994C332.792 139.528 334.365 140.118 335.604 140.764C335.431 136.261 336.207 129.878 336.521 125.199L338.244 98.7379L329.26 98.7661C328.35 102.126 327.944 105.982 327.205 109.393C325.425 117.62 323.703 127.335 321.168 135.303C324.409 136.344 328.35 137.687 331.473 138.994ZM327.36 71.4823C327.909 76.563 328.535 84.5384 329.708 89.2447L331.687 89.4052C333.375 89.4508 336.539 89.4466 338.083 89.7276C337.388 86.6722 335.875 72.9233 334.889 71.3545C334.493 71.3222 334.436 71.2598 334.104 71.3758C331.91 71.4264 329.542 71.5269 327.36 71.4823ZM293.144 128.972C290.112 118.808 286.017 101.623 282.816 90.8819C282.673 90.7856 282.529 90.6892 282.386 90.5928C280.68 93.8338 277.437 96.8168 275.703 100.254C277.289 108.114 280.201 118.821 282.501 126.481C284.313 126.785 285.772 127.024 287.557 127.511C289.423 127.985 291.285 128.472 293.144 128.972ZM244.891 84.2959C245.307 81.6338 245.802 79.2931 246.377 76.6589C243.435 76.7879 240.407 76.6996 237.515 76.8892C233.146 77.1638 228.773 77.3692 224.397 77.5053C226.654 81.2037 227.811 82.7885 232.332 83.8771C232.692 83.963 233.056 84.0364 233.421 84.0971C236.966 84.4155 241.265 84.2941 244.891 84.2959ZM273.515 40.6909C274.411 46.3745 277.337 50.6375 279.614 55.7664C280.41 55.312 281.211 54.7998 282.074 54.5161C283.544 53.9719 285.15 53.3392 286.636 52.8913C283.837 49.1238 281.518 43.0389 278.869 38.9581C278.363 38.1778 277.364 36.2816 276.84 35.6683C275.473 37.3784 274.388 38.6413 273.515 40.6909ZM371.036 92.9534C368.94 92.974 366.657 93.0425 364.579 92.9463C364.545 97.01 364.562 102.048 364.209 106.039C366.125 106.357 369.099 106.76 370.901 107.246C371.286 104.079 371.063 96.4448 371.036 92.9534ZM342.394 152.22C342.235 155.463 341.377 161.673 340.69 164.924C345.603 164.055 351.417 163.019 356.236 161.899C356.437 161.172 356.654 160.719 356.448 160.004C353.904 157.836 346.063 154.929 342.394 152.22ZM326.609 62.6365L328.938 62.5244C330.274 62.4709 332.481 62.3209 333.736 62.4294C333.446 59.8649 331.859 45.9261 330.873 44.5548L330.545 44.4295C328.739 45.4492 326.44 46.412 325.959 48.4413C325.051 52.2663 325.768 58.839 326.609 62.6365ZM370.225 70.7329C368.097 71.8284 367.086 72.4428 366.004 74.6544C364.669 77.3811 364.237 80.6424 364.829 83.6075C365.232 83.9504 365.051 83.9242 365.466 83.985C367.138 84.0328 369.237 84.0345 370.87 84.1866C370.748 82.2572 370.912 71.5646 370.225 70.7329ZM284.008 257.581C285.522 257.493 287.219 257.486 288.739 257.519C297.461 257.709 306.468 257.184 315.166 257.643C321.967 257.682 328.767 257.677 335.567 257.629C335.658 254.906 335.327 252.238 335.697 249.526L300.92 249.478C297.363 249.478 286.975 249.705 283.778 249.267C284.051 250.891 283.992 255.693 284.008 257.581ZM255.193 77.6518C254.874 80.3155 254.63 82.4649 254.026 85.0862C257.684 86.6971 266.253 91.1397 268.989 93.6235C269.341 93.1571 271.007 90.8938 271.306 90.6185C272.478 89.1568 274.79 86.1113 276.095 85.0203C268.634 83.0062 262.245 80.0648 255.193 77.6518ZM290.352 60.8186C288.19 61.7069 285.667 62.807 283.45 63.4577C285.865 69.2093 289.094 76.3727 291.263 82.0333L293.322 81.2185C295.484 80.6357 299.191 79.5886 301.321 79.3744C297.814 74.1525 294.584 66.4148 290.746 60.8449L290.352 60.8186ZM357.014 150.021C357.865 150.4 357.844 150.561 358.61 150.448C359.169 149.665 360.744 144.247 361.163 142.905L366.772 125.2C367.53 122.833 368.754 118.555 369.7 116.445C367.517 116.015 363.188 115.203 361.194 114.38C360.512 117.785 357.485 124.1 355.959 127.424C353.168 133.505 350.324 139.486 347.624 145.629C350.575 146.823 354.095 148.621 357.014 150.021ZM303.252 87.8056C300.568 88.5605 295.777 90.0304 293.174 90.4577C294.4 101.175 297.024 110.079 299.929 120.407C300.776 123.419 302.044 127.222 302.744 130.189C304.046 131.784 307.602 131.881 309.908 132.55C309.333 129.579 309.041 126.182 308.602 123.12C307.492 115.691 306.425 108.255 305.402 100.813C304.861 96.8586 304.356 91.8023 303.69 88.0089L303.252 87.8056Z"/><path fill="#FE7C28" d="M315.166 257.643C321.967 257.682 328.767 257.677 335.567 257.629C335.935 261.144 335.701 266.473 335.558 270.022C334.618 295.182 325.568 319.364 309.76 338.96C300.865 350.034 290.058 359.425 277.851 366.688C274.107 368.879 261.473 375.849 257.423 375.475C267.832 369.192 274.909 364.284 283.04 354.899C293.15 343.231 299.009 330.319 303.566 315.696C304.527 312.613 306.749 306.085 306.52 302.934C306.575 302.014 308.962 295.795 309.422 294.362C310.633 290.621 311.652 286.821 312.475 282.977C313.841 276.36 314.368 269.87 314.446 263.134C314.465 261.516 314.354 259.312 314.623 257.796L315.166 257.643Z"/><path fill="#FE7C28" d="M243.415 181.758C255.135 184.175 257.537 185.262 269.27 181.841C283.268 188.417 292.65 206.669 284.696 221.131C284.221 221.994 283.612 222.664 282.769 223.174C275.635 223.457 272.265 220.795 266.711 216.651C263.534 214.281 260.447 211.828 257.347 209.351C250.224 203.642 243.141 197.885 236.096 192.081C238.403 188.548 240.845 185.104 243.415 181.758Z"/><path fill="#FE7C28" d="M356.236 161.899C353.96 178.982 350.698 195.967 348.156 213.015C346.421 224.652 340.948 223.524 331.246 223.109L337.807 182.525C338.232 179.815 340.119 166.279 340.69 164.924C345.603 164.055 351.417 163.019 356.236 161.899Z"/><path fill="#FE7C28" d="M217.7 161.342C226.875 160.765 231.863 168.911 236.887 175.439C235.263 178.144 233.632 180.382 231.778 182.941C231.277 183.545 230.658 184.606 230.224 185.3C227.469 180.976 224.644 176.398 221.569 172.317C218.976 168.876 216.059 165.89 213.602 162.283C215.028 161.905 216.252 161.631 217.7 161.342Z"/><path fill="#025290" d="M193.165 90.2934C198.189 90.1543 203.367 90.174 208.401 90.2404C211.593 90.2826 213.474 91.5981 215.917 93.4957C207.442 99.3966 207.367 99.4943 197.017 99.3046C194.412 100.891 186.712 108.843 183.937 111.459C184.395 113.463 184.996 115.565 185.478 117.606C188.661 117.381 192.821 117.508 196.082 117.533C196.332 120.403 196.254 124.036 196.263 126.975C192.691 126.756 189.113 126.88 185.522 126.763C185.111 128.921 184.672 130.486 184.067 132.573C186.32 135.16 194.272 143.004 196.898 144.758C207.497 144.775 207.654 142.84 215.498 150.646C214.286 150.58 213.007 150.534 211.815 150.768C205.066 152.093 199.795 153.567 192.794 153.497C189.974 151.787 180.759 142.68 178.516 139.888C174.446 143.906 169.318 145.408 164.068 146.942C162.376 148.778 159.896 152.325 158.356 154.399L148.975 166.964L120.037 205.937C115.919 211.417 111.722 217.293 107.421 222.597C114.924 229.966 124.353 238.154 132.224 245.377L184.618 293.623C193.278 301.683 207.134 311.729 210.242 323.033C212.775 332.244 211.997 347.433 211.984 357.28L212.02 390.995C204.243 390.894 196.465 390.845 188.687 390.847L138.744 390.905C128.338 390.848 117.931 390.873 107.525 390.98L107.491 381.985C115.409 382.156 123.365 381.995 131.287 382.088C133.053 382.109 134.729 382.057 136.491 382.231C135.987 369.031 136.534 353.48 136.47 339.977C131.742 333.617 126.06 327.024 121.12 320.717L89.3311 279.659C83.9566 272.711 76.5795 263.571 71.6623 256.343C44.9798 252.997 31.8272 227.701 45.9291 204.847C48.835 200.138 60.9261 190.814 65.5675 186.728C81.3958 172.643 97.3033 158.647 113.289 144.741C117.817 140.735 122.376 136.764 126.966 132.83C130.421 129.89 135.066 126.261 138.021 122.958L138.244 122.705C139.001 116.202 140.533 110.802 145.091 105.896C149.401 101.33 155.352 98.6707 161.628 98.5062C167.946 98.3032 173.74 100.592 178.332 104.923C179.832 103.016 191.477 90.9162 193.165 90.2934ZM98.7134 244.45C101.091 246.596 104.946 251.059 107.2 253.548C110.107 256.757 114.429 261.134 116.96 264.514C115.645 266.593 112.577 268.976 110.608 270.6C107.8 267.62 93.5825 252.773 92.4128 250.354C92.3392 250.411 92.2656 250.469 92.1919 250.526C89.2897 252.656 85.9459 254.128 82.4999 255.131C82.451 255.242 82.4021 255.353 82.3531 255.465C83.7167 257.581 85.9857 260.351 87.5704 262.398L96.5723 274.023L124.407 310.111L131.865 319.733C133.637 322.017 136.093 324.966 137.331 327.496C138.482 321.251 142.376 314.744 146.309 309.759C143.923 307.465 141.451 304.721 139.167 302.285C133.935 296.686 128.74 291.051 123.584 285.381C121.959 283.582 117.731 279.015 116.399 277.148C118.453 275.234 120.729 273.009 122.823 271.183C129.418 278.193 135.928 285.283 142.353 292.45C145.212 295.603 150.237 300.888 152.662 304.168C160.037 299.69 166.518 296.674 175.534 297.355C169.7 292.865 162.12 284.964 156.528 279.772L120.136 246.446L111.208 238.239C109.414 236.569 106.592 233.803 104.687 232.42C103.79 236.333 101.231 241.28 98.7134 244.45ZM97.1357 200.418C99.4622 202.993 103.096 208.888 104.253 212.162C107.775 206.74 111.669 201.975 115.563 196.838C119.61 191.415 123.629 185.971 127.621 180.507L144.347 157.833C147.132 154.07 150.888 148.741 153.866 145.228C152.126 144.399 150.243 143.546 148.538 142.674C146.912 144.96 145.026 147.049 142.918 148.899C135.803 142.638 136.455 143.626 142.294 136.664C141.909 136.035 140.634 133.667 140.305 133.425L118.654 151.945L74.8677 190.734C79.9897 190.585 86.0491 191.945 90.0884 195.221C93.3685 191.053 97.5896 186.424 101.133 182.467C106.619 176.331 112.16 170.245 117.755 164.208C121.885 159.763 126.43 154.236 130.72 150.116C132.93 152.102 134.783 153.943 136.873 156.061C135.586 158.283 132.384 161.605 130.557 163.586L108.851 187.669C105.863 190.983 100.171 197.648 97.1357 200.418ZM145.52 360.579C145.533 367.041 145.78 375.664 145.517 382.019L182.31 382.109C187.145 382.12 198.418 382.426 202.668 381.922C202.936 381.207 202.973 372.017 203.022 370.562C203.029 367.397 202.957 363.831 203.077 360.698C201.131 362.396 199.06 364.556 197.05 365.975C180.971 377.328 159.824 375.43 146.249 361.03C145.983 360.748 145.876 360.691 145.52 360.579ZM162.874 137.143C170.912 136.694 177.061 129.81 176.605 121.772C176.149 113.735 169.261 107.59 161.224 108.052C153.195 108.513 147.059 115.393 147.514 123.422C147.969 131.451 154.844 137.593 162.874 137.143ZM177.373 363.978C193.24 362.318 204.739 348.083 203.028 332.222C201.316 316.361 187.045 304.907 171.19 306.669C155.405 308.424 144.015 322.616 145.719 338.406C147.423 354.196 161.578 365.631 177.373 363.978ZM70.6172 199.659C57.5557 201.085 48.1339 212.846 49.5912 225.904C51.0484 238.962 62.8309 248.355 75.8855 246.867C88.8963 245.384 98.2517 233.65 96.7993 220.635C95.347 207.621 83.6349 198.238 70.6172 199.659Z"/><path fill="#025290" d="M170.911 318.709C180.224 316.762 189.339 322.781 191.203 332.111C193.067 341.441 186.967 350.502 177.62 352.282C168.391 354.041 159.47 348.033 157.629 338.821C155.788 329.608 161.715 320.633 170.911 318.709ZM176.122 343.245C180.462 342.303 183.206 338.009 182.237 333.675C181.268 329.341 176.956 326.624 172.628 327.621C168.339 328.608 165.651 332.873 166.612 337.169C167.572 341.464 171.82 344.178 176.122 343.245Z"/><path fill="#025290" d="M71.3059 208.097C79.7598 207.068 87.4392 213.108 88.4299 221.567C89.4206 230.025 83.3449 237.677 74.8819 238.629C66.4735 239.575 58.8819 233.547 57.8976 225.143C56.9133 216.739 62.9065 209.12 71.3059 208.097ZM74.6324 229.416C77.9203 228.622 79.9874 225.365 79.3062 222.052C78.6251 218.739 75.4408 216.562 72.1062 217.129C69.8453 217.514 67.9743 219.101 67.2263 221.269C66.4783 223.437 66.9724 225.84 68.515 227.537C70.0576 229.234 72.4031 229.955 74.6324 229.416Z"/><path fill="#025290" d="M161.116 115.406C164.942 114.881 168.486 117.507 169.098 121.32C169.709 125.133 167.164 128.736 163.366 129.434C160.831 129.899 158.244 128.956 156.603 126.969C154.962 124.982 154.526 122.262 155.463 119.862C156.4 117.461 158.563 115.756 161.116 115.406Z"/><path fill="#FE7C28" d="M224.719 97.9836C227.398 97.9319 244.706 108.522 246.702 110.802C247.081 116.878 246.613 127.543 246.537 133.936C243.14 136.1 239.426 138.177 235.933 140.224C232.832 142.042 229.272 144.364 226.113 145.973C223.814 146.103 207.672 135.837 204.454 133.964C204.181 131.276 204.279 127.657 204.279 124.862L204.309 110.236C206.194 108.511 222.088 99.0583 224.719 97.9836Z"/></svg>